# xmcd
#
# Track frame offsets:
#	183
#	22688
#	35323
#	55933
#	82605
#	99068
#	117303
#	141715
#	166118
#	186415
#	200675
#	218293
#	238098
#
# Disc length: 3415 seconds
#
# Revision: 0
# Processed by: cddbd v1.5.2PL0 Copyright (c) Steve Scherf et al.
# Submitted via: audiograbber 1.83.01
#
DISCID=a00d550d
DTITLE=Hamsters, The - The Hamsters
DYEAR=1993
DGENRE=Blues Rock
TTITLE0=(I Wanna) Make Love To You
TTITLE1=Georgia Slop
TTITLE2=Climbing The Corporate Ladder
TTITLE3=In The Heat Of The Night
TTITLE4=The Guitar Bug
TTITLE5=I Wouldn't Treat A Dog
TTITLE6=(a) Slims Blues (b) Blues For The Blues
TTITLE7=Heart Of Darkness
TTITLE8=Little Fine And Healthy Thing
TTITLE9=Chevrolet
TTITLE10=Sitting On The Boat Dock
TTITLE11=Check Up From The Neck Up
TTITLE12=Romeo's Escape
EXTD=
EXTT0=
EXTT1=
EXTT2=
EXTT3=
EXTT4=
EXTT5=
EXTT6=
EXTT7=
EXTT8=
EXTT9=
EXTT10=
EXTT11=
EXTT12=
PLAYORDER=
